/* XPM */
static char *c1f67d32801d43d7e1ed1a03a50a2cc5TuAZcpZWTSz177Kc[] = {
/* columns rows colors chars-per-pixel */
"64 64 46 1 ",
"  c #123838",
". c #123939",
"X c #133939",
"o c #133A3A",
"O c #133B3B",
"+ c #143C3C",
"@ c #143D3D",
"# c #143E3E",
"$ c #153E3E",
"% c #153F3F",
"& c #154040",
"* c #154141",
"= c #164141",
"- c #164242",
"; c #164343",
": c #164444",
"> c #174444",
", c #174545",
"< c #174646",
"1 c #174747",
"2 c #184848",
"3 c #184A4A",
"4 c #194B4B",
"5 c #194C4C",
"6 c #194D4D",
"7 c #1A4D4D",
"8 c #1A4E4E",
"9 c #1A4F4F",
"0 c #1A5050",
"q c #1B5151",
"w c #1B5252",
"e c #1B5353",
"r c #1C5353",
"t c #1C5454",
"y c #1C5555",
"u c #1D5656",
"i c #1E5A5A",
"p c #1E5B5B",
"a c #1F5C5C",
"s c #1F5E5E",
"d c #205F5F",
"f c #206060",
"g c #206161",
"h c #216161",
"j c #216262",
"k c #216363",
/* pixels */
"O%%%%    %+ +++=== %%%=%+O =%%%  %%%++O+=%%%OO%%%% %%%%%%O  %%  ",
"%sddd7 %   + <djff, idff0O5fddd%%qqq0>Otffdi =ffdf=Oidsdq  %  % ",
"%dffj7  % +  ,jdff, ifff0O5fffd%%qqqt> 0ffdi ,fffk, sdfft   %   ",
"%dffj8 %   + ,fdff, iffftO5fddd% qqtt>Otfddd%,ffff, sffft %    %",
"%fffk8   %   ,jjff,%dffftO5fffd%+tt0t>Otjfjd%,kffk, ddfkd %    %",
"%5588,     X+=8752= 2555>O,2558%+>>>>&O18882O=5555%%2552=   %   ",
"O      % +XX %XX XOOOOOOOOO %   O.OO OOO    O   OOO OO O    XX +",
"O    % ,7877    OO %q0tt2OOO  % +0t0t> O  %  %tttt% ,525< =dq8d+",
"+ +    2qqt0%O   +  ddfft   O  O&fffk5  % %  ,fkff>O0ttt8X5ffff=",
" +  %% 8tqq5OO    +%ddfft %%OOOO&ffff5%   %  ,ffff>O000t7X5ffff=",
"+ %    8qqqq% %  %  ddddt     O +ffff5  %   O=fffk>+000t7X2fffd%",
" +  %  2q8q5 %   % %qdiiq  %  OO&iisi1OO  % O=siis=O5005,X2diii%",
"+  + %  %         % %  %%%  OOOOOO++OOOO  OOOO %OOOOOOOOOOOO %OO",
"%=,,,= =,,,= %,2,,%   %   %===&O+=>>>+O&====OO,2>>+O=>>>=O+===%O",
"+fjjk5 tfffd%,jffj,  %  % ,q0t0+&fffk6O6ttt0O,ffff>Osffkt 1ttq0%",
"=dddf5 tffdd ,ffjj,   %   ,ttt0++ffff6 1tq00 =ffff>Osfff0 >t000+",
"=dfff5 tjdjdX=ffff, %%    ,tqq0%%ffff5O5tqq8%,ffff>+iffftO1t0t0+",
"+dffj8 tjjfd =kffk,    %  ,tqt0+%fffk2 2tqtq ,kffk>+sffftO>tt0t+",
"%,,,,= =<<,, %,,2,% %   OO%%===O ,=,,=O%==== %,,>=++=>>>=OO+&&&+",
"   %  %     %    %    %+ OOOOOOO% OOOOOOOO  %   OOOOOOOOOOOOOOOO",
"%tddd2  %    >idis> 8q882O2ddtd%%iiis2O15005%   OO O2500> 1sppp+",
"%ddff8 %   % ,ffdf,%8qqt2 5fddd%%dfdf5O2t0t5   %OOOO0t0t5O0fffs&",
"%dfff8   %   ,ffff, 0qqt5O5fddd%%ffff5O5tt00 % %OO O50tt5O6ffff+",
"%fffjq    %% ,kkff, 0tqt5O5ffff%%ffff5 500t0%    OOO0tt01 6kfff&",
"%tttd=X   +  =tttt=O77,8,+,dttt%%0ttt2 ,252,  %   OO1151>O>tt0t+",
"     %   + +    OO O      X           % OOOO %     OO OOOOOOO OO",
"   %  X=7787 %5555%O %   X+8558 % %%   25552 %5555=O1566>O%>1>>O",
" %    Xdfddd%,kfff,  % % X8jfff%     % tfffd%,fffk>OskfktO>ttt0+",
"%  + +Xqffdd ,ffff,      +7dddd%+ + %% qfffi ,fffk,%isfft.100t0+",
"% + + X8ffdt ,ffff,  %% + 7jfdd% + +  Xdfffd%,fdff, sffftO>tt00+",
" + + + dfddd ,ddfd>O     +7jddd%+ +   X8ffdi ,dddd, ifff0O>t000&",
"  + + ++=%%% %%%==OO %% + ++%%%  + + %   %%%% %%%%% +&&++O++&++O",
"O=+++OO% %%%% %  %  %%==OO+=%%+O++%%%  %%%%%  %%+%+O%    % =+++%",
"+0000>O2qqq5       Oiddf0O5fdss%+qqqq, tffdi%=q000=O  %   8fjdd+",
"+00tt>O2tqqq%    %OOidfftO5fddd%+qqqt, tfffiO=0t0t=O%    +8ffff+",
"%0t0t1O1tqq5% OO  O%ifffq 5fffs%+ttqt, tfffiO%0qt0+O  % + 7dfff=",
"+tt0t>O6ttt5OO  % % dffft 5ffff=%tqqt>Otffkd =qqt0=OOO %% 8kfff=",
"+>>1>+O=>11>OOOO  % 28852O,5525%O,,,,=O>5555 %,7>1O O  %  =8822%",
"OOOOOOOO OOOOOO+XX    %  %  O  OOO XOOOO  XX%   OOOO           %",
"Ott0t> 6ttt5O=ttqd= %     =5522% OO OOO2ttqq%   OOOO8ttt8 2ttqq%",
"+fffk5OtffkiO>ffdf, % % % ,qttq%O      ddffd  %%O OOsffkt 5ffff=",
"=ffff5OtfffsO>ffff2   %   ,tqq5%O  %  %qdddi%   OOOOsffft 5ffff=",
"+sfsk5 0fsdsO>fffd= %   % ,qqqq% %  XXXdfddi%     OOissft 8fffd%",
"+ssis1O0siitO=sidd=   %   ,q005%   %XXXqsidt  %%  OOtsiiq 5diii%",
"OOOOOOOO%OOO   %  O   %  %     %    %   OO %      % OOOO% % %OO ",
"O&&&=+O=,,=> %  % OO===== =,<,, %,,,,=% OO%  %,2,,% ==%=%   OOOO",
"+00tt> 0ffdi% %   OO5tqt2 8jjjj++fffj8X O    ,kfff, 8tqq2  %    ",
"+0t0t>Otffdd%   % O%0tqq2X7fdjd=+jfff8X   %  ,ffff,%qqtt8  % %  ",
"&00tt, tfffs OO %   qqtt5O2fdjd+=ffff5    OOO1ffff,%000t1OOO    ",
"+tt0t2 tkffi%O     %0t002O5fjjd+%ffff5 O%   O>fffk, 0ttt1O OOO% ",
"O&=&=+%=,,,=   %  OO===%%O=><<,  ,,,,=OO  OOO+>>,,% +=&&=OOO %  ",
"OOO+    %  %% % OOOO  %OOOOO   %%   % O% %OOOOOO  % OOOOOOOO  % ",
"OOOO   qisit ,disi>O5q8q>O %    %iiid2O0distO+00q8%Otisi0O2ddii%",
"OO O   tfffs ,fdff>Oqqqq2O   %% %dfdf5O0ddfiO&0tqt=OsffkqO5fdfd%",
"  OO%  tffdi%,ffff,%5qqt2 %%    =ffff5OtfffsO=tqqq=OiffftO5kffd%",
"OOO   %tfffiO,ffff, 0tqq5    %% %ffff5OtfffiO=tqtt=Oiffft 5ffff%",
" OOOO O6tt00%=tqqt= 2877, %   OO%0qtt2O20tt5 =2577=+qqqd5O2tttt%",
"OOOO OOOOO OO  OXX      %      OOO OO % OOOO% OOX    XX  O      ",
"O=>>>%O>5555O=5578=+% %%  ,8852% 5555>O=>1,>O%5572=   % OX=8555%",
"%0ttt>OtfffsO,ffjj,       8kffd%%fffk2O2t0t0O=fffj,  %  O 5fffd%",
"+0t0t>OtfffiO,ffdf, +   % 8jdfd%%dfff5O5tqq0 ,ffff,  %   %5ffff=",
"+00tt> 0fffiO=ffdj,  + %  7jddd%%dfff5O2tqq0%,ffff,    %  5fffd%",
"+0qq0>O0ffsiO>ffjd< +   % 7dsds%%sddf5O2qq88 ,dddf,  %  % 5fddd%",
"O+%%%OO+%=%%OO%==+++ +%    %%%%OO%%%= % % %%% ==+= % % %   %%%%O"
};
