/* XPM */
static char *_6c0d55eee6d420ac6954b8c76f1ce0b4JoSTo18vHzYcnLh[] = {
/* columns rows colors chars-per-pixel */
"64 64 103 2 ",
"   c #5D1E16",
".  c #5E1E16",
"X  c #5E1E17",
"o  c #5E1F17",
"O  c #5F1F17",
"+  c #612018",
"@  c #622118",
"#  c #622119",
"$  c #622219",
"%  c #632219",
"&  c #642319",
"*  c #652319",
"=  c #65231A",
"-  c #65241A",
";  c #66241A",
":  c #69271C",
">  c #6A271C",
",  c #6A271D",
"<  c #6A281D",
"1  c #6C291D",
"2  c #6D291D",
"3  c #6C291E",
"4  c #6C2A1E",
"5  c #6D2A1E",
"6  c #6F2A1E",
"7  c #712C1F",
"8  c #712D20",
"9  c #742E20",
"0  c #763022",
"q  c #773122",
"w  c #783123",
"e  c #783224",
"r  c #793324",
"t  c #7B3525",
"y  c #7D3524",
"u  c #7F3625",
"i  c #7E3827",
"p  c #803625",
"a  c #803726",
"s  c #803826",
"d  c #823927",
"f  c #813928",
"g  c #813A28",
"h  c #843A28",
"j  c #853B28",
"k  c #873C29",
"l  c #863C2A",
"z  c #883C29",
"x  c #8A3E2B",
"c  c #89402C",
"v  c #8A402C",
"b  c #8A412C",
"n  c #8B412D",
"m  c #8D412C",
"M  c #8E422D",
"N  c #8F422D",
"B  c #8D432E",
"V  c #8E432E",
"C  c #8F432E",
"Z  c #8E442E",
"A  c #8E442F",
"S  c #91442E",
"D  c #91442F",
"F  c #90452F",
"G  c #91452F",
"H  c #92452F",
"J  c #904530",
"K  c #914630",
"L  c #944831",
"P  c #954831",
"I  c #954932",
"U  c #964932",
"Y  c #954A32",
"T  c #964A33",
"R  c #964B33",
"E  c #974B33",
"W  c #984B33",
"Q  c #984C33",
"!  c #984C34",
"~  c #994C34",
"^  c #994D34",
"/  c #9A4D34",
"(  c #9A4D35",
")  c #9A4E35",
"_  c #9B4E35",
"`  c #9C4D34",
"'  c #9E4F36",
"]  c #9E5036",
"[  c #9E5037",
"{  c #9F5137",
"}  c #A15237",
"|  c #A05238",
" . c #A15238",
".. c #A35439",
"X. c #A45439",
"o. c #A45539",
"O. c #A4553A",
"+. c #A5553A",
"@. c #A5563A",
"#. c #A6573B",
"$. c #A7573B",
"%. c #A8573B",
"&. c #A8583B",
/* pixels */
"O O O O o O   o O O O O   O O   O O   O O   O O   O O   O O   O O   O O   O O   O     O O   O     o O O O     o O O o O   O o o ",
"O # : < 4 < < < < < < 5 < < < < 5 < < < < < < 5 < < < < 5 < < < < < < 5 < < < < 5 < < < < < 5 5 < < < > 5 5 > < < > 5 5 < > # o ",
"O : i b c c x b c c c c c c c c c c c c c c c c c c c c c c c c c c c c c c c c c c c c c c c c c c c c c c c c c c c c c i > O ",
"O 5 b / ! ! ! Q ! ! ! ! ! ! ! ! ! ! ! ! ! ! ! ! ! ! ! ! ! ! ! Q ! ! ! ! ! ! ! ! ! ! ! Q ! ! ! ! ! ! ! ! ! ! ! ! ! ! ! ! ! c < O ",
"  < c ! ! / Q Q Q Q Q Q ! Q Q Q Q Q Q Q Q Q Q Q ! ! / E Q Q Q Q Q Q Q Q ! ! / E Q Q Q Q W / E / E E ! ! W E ! ! E E Q / ! c 4 o ",
"O < c ! / E E E E E E E / E E E E E E E E E E E E W E E E E E E E E E E W E E E E E E Q ! _ ! ! _ ! _ ! _ ! _ ! ! / Q / ! c 5 O ",
"O < b ! E E E E E E E E E E E E E E E E E E E E E E E E E E E E E E E E E E E E E E ! _  .+.+...+.......+.......+.} ! ! Q b 5 O ",
"  < b W Q E E E E E E E E E E E E E E E E E E E E E E E E E E E E E E E E E E E E E / ! ] +.+.+.&.%.$.$.&.$.$.%.&...! E ! x <   ",
"O 5 c ! / E E E E E E E E E E E E E E E E E E E E E E E E E E E E E E E E E E E E E E Q ! _ _ ] $.&.$.$.$.$.$.$.&..._ ! ! c 5 O ",
"O < g K E E E E E E E E E E E E E E E E E E E E E E E E E E E E E E E E E E E E E E E E E E E ! { O.$.&.$.$.$.$.+...! W ! c < O ",
"O # 8 i Z E E E E E E E E E E E E E E E E E E E E E E E E E E E E E E E E E E E E E E E E E E E ! { O.&.$.$.$.$.&...! ! ! c < O ",
"O @ < e M ! E E E E E E E E E E E E E E E E E E E E E E E E E E E E E E E E E E E E E E E E E E E ! { ..$.$.$.$.&..._ ! ! x < O ",
"O # : r Z ! / E E E E E E E E E E E E E E E E E E E E E E E E E E E E E E E E E E E E E E E E E E E ! ] +.&.&.$.#...! / ! c < O ",
"O # > r c E E E E E E E E E E E E E E E E E E E E E E E E E E E E E E E E E E E E E E E E E E E E E ! ! ] +.&.$.#.+._ ! ! c < O ",
"# # > q l H E E E E E E E E E E E E E E E E E E E E E E E E E E E E E E E E E E E E E E E E E E E E ! W ! } +.&.&.+.! ! ! c < O ",
"o # < 9 d M K E E E E E E E E E E E E E E E E E E E E E E E E E E E E E E E E E E E E E E E E E E E E W ! ! ] +.&. .! Q ! c < O ",
"o # < q g M K W E E E E E E E E E E E E E E E E E E E E E E E E E E E E E E E E E E E E E E E E E E E E E E / ] +.+._ / / c < O ",
"# # : q g S P W E E E E E E E E E E E E E E E E E E E E E E E E E E E E E E E E E E E E E E E E E E E E E E E ! +...! / E c < O ",
"O # < q d S P E E E E E E E E E E E E E E E E E E E E E E E E E E E E E E E E E E E E E E E E E E E E E E E ! ! ..+.! ! ! c < O ",
"O # < q h M P E E E E E E E E E E E E E E E E E E E E E E E E E E E E E E E E E E E E E E E E E E E E E E E / ! } { ! ! ! c < O ",
"o # 5 9 h M P E E E E E E E E E E E E E E E E E E E E E E E E E E E E E E E E E E E E E E E E E E E E E E E E / ! ! Q Q ! c < O ",
"O # > w h S P E E E E E E E E E E E E E E E E E E E E E E E E E E E E E E E E E E E E E E E E E E E E E E E E E ! E E Q ! c < O ",
"O # > 9 h M P E E E E E E E E E E E E E E E E E E E E E E E E E E E E E E E E E E E E E E E E E E E E E E E E E ! W E Q ! c < O ",
"o = 2 w h M P E E E E E E E E E E E E E E E E E E E E E E E E E E E E E E E E E E E E E E E E E E E E E E E E E E E E Q ! c < O ",
"o = 8 y x m L / E E E E E E E E E E E E E E E E E E E E E E E E E E E E E E E E E E E E E E E E E E E E E E E E E E E Q Q c < O ",
"o = 9 u h M E ! Q E E E E E E E E E E E E E E E E E E E E E E E E E E E E E E E E E E E E E E E E E E E E E E E E E E Q ! c < O ",
"O = 9 u x H ] } ! E E E E E E E E E E E E E E E E E E E E E E E E E E E E E E E E E E E E E E E E E E E E E E E E E E E ! c < O ",
"O = 9 u l H  ...! E E E E E E E E E E E E E E E E E E E E E E E E E E E E E E E E E E E E E E E E E E E E E E E E E E / ! c < O ",
"O # 9 u h P } +.] Q E E E E E E E E E E E E E E E E E E E E E E E E E E E E E E E E E E E E E E E E E E E E E E E E E Q ! c < O ",
"o = 9 u h H } +.! Q E E E E E E E E E E E E E E E E E E E E E E E E E E E E E E E E E E E E E E E E E E E E E E E E E Q ! c < O ",
"o = 9 u x H } +._ Q E E E E E E E E E E E E E E E E E E E E E E E E E E E E E E E E E E E E E E E E E E E E E E E E E Q ! c < O ",
"o = 9 u h H } +._ ! E E E E E E E E E E E E E E E E E E E E E E E E E E E E E E E E E E E E E E E E E E E E E E E E E Q ! c < O ",
"O ; 7 u k H } o.! E E E E E E E E E E E E E E E E E E E E E E E E E E E E E E E E E E E E E E E E E E E E E E E E E E Q ! c < O ",
"O : 7 u k H } o._ E E E E E E E E E E E E E E E E E E E E E E E E E E E E E E E E E E E E E E E E E E E E E E E E E E Q ! c < O ",
"O = 9 d k H } o._ / E E E E E E E E E E E E E E E E E E E E E E E E E E E E E E E E E E E E E E E E E E E E E E E E E Q ! c < O ",
"O = 7 u k H } o.! E E E E E E E E E E E E E E E E E E E E E E E E E E E E E E E E E E E E E E E E E E E E E E E E E E Q ! c < O ",
"O ; 7 u k H } o._ E E E E E E E E E E E E E E E E E E E E E E E E E E E E E E E E E E E E E E E E E E E E E E E E E E Q ! c < O ",
"O # 7 u k H } o._ / E E E E E E E E E E E E E E E E E E E E E E E E E E E E E E E E E E E E E E E E E E E E E E E E E Q ! c < O ",
"o ; 9 d k H } +.! E E E E E E E E E E E E E E E E E E E E E E E E E E E E E E E E E E E E E E E E E E E E E E E E E E Q ! c < O ",
"O ; 7 u l H } +._ E E E E E E E E E E E E E E E E E E E E E E E E E E E E E E E E E E E E E E E E E E E E E E E E E E Q ! c < O ",
"O ; 9 u l H } o._ / E E E E E E E E E E E E E E E E E E E E E E E E E E E E E E E E E E E E E E E E E E E E E E E E E Q ! c < O ",
"O ; 9 u x H } o.! E E E E E E E E E E E E E E E E E E E E E E E E E E E E E E E E E E E E E E E E E E E E E E E E E E Q ! c < O ",
"O ; 8 u k H } o._ / E E E E E E E E E E E E E E E E E E E E E E E E E E E E E E E E E E E E E E E E E E E E E E E E E Q ! c < O ",
"  # 9 p k H } o.! E E E E E E E E E E E E E E E E E E E E E E E E E E E E E E E E E E E E E E E E E E E E E E E E E E Q ! c < O ",
"o ; 7 u k H } o._ ! / E E E E E E E E E E E E E E E E E E E E E E E E E E E E E E E E E E E E E E E E E E E E E E E E Q ! c < O ",
"O ; 9 p k H } o.! Q E E E E E E E E E E E E E E E E E E E E E E E E E E E E E E E E E E E E E E E E E E E E E E E E E Q ! c < O ",
"O ; 7 d k H } o._ ! E E E E E E E E E E E E E E E E E E E E E E E E E E E E E E E E E E E E E E E E E E E E E E E E E Q ! c < O ",
"O ; 7 u k H } o.! E E E E E E E E E E E E E E E E E E E E E E E E E E E E E E E E E E E E E E E E E E E E E E E E E E Q ! c < O ",
"O ; 8 p k H } o./ Q E E E E E E E E E E E E E E E E E E E E E E E E E E E E E E E E E E E E E E E E E E E E E E E E E Q ! c < O ",
"  # 9 u k H } o.! Q E E E E E E E E E E E E E E E E E E E E E E E E E E E E E E E E E E E E E E E E E E E E E E E E E Q ! c < O ",
"O ; 9 u k H } o.] Q E E E E E E E E E E E E E E E E E E E E E E E E E E E E E E E E E E E E E E E E E E E E E E E E E Q ! c < O ",
"O ; 9 u k H } o.! / E E E E E E E E E E E E E E E E E E E E E E E E E E E E E E E E E E E E E E E E E E E E E E E E E Q ! c < O ",
"O # 9 p x H } o.! E E E E E E E E E E E E E E E E E E E E E E E E E E E E E E E E E E E E E E E E E E E E E E E E E E Q ! c < O ",
"o ; 8 u h H } +.! E E E E E E E E E E E E E E E E E E E E E E E E E E E E E E E E E E E E E E E E E E E E E E E E E E Q ! c < O ",
"o ; 8 u x H } +.] E Q Q Q Q E E / E E / E E / Q E / E / E / Q E E E E E E E E E E E E E E E E E E E E E E E E E E E E Q ! c < O ",
"o # q u h H } +. .! _ _ ! ] ! ! _ _ ! _ _ ! ! / ! _ ! _ ! ! Q Q E E E E E E E E E E E E E E E E E E E E E E E E E E E Q ! c < O ",
"O ; 7 p z H } #.+.+.o.o.o.o.o.o.o.o.o.o.o.o.o.o.o.o.+.+.+. .! E E E E E E E E E W W E E E E E E E E E E E E E E E E E Q Q c < O ",
"O : 7 p h H _ ] ] o.} } } } } } } } } } } } } } } } } }  ._ / L K E E W W W W W W W W W W W E Q E E E Q E E E E E E E E ! c < O ",
"O = 7 h x m H H H H H H H H H H H H H H H H H H H H H H H H M M M H E W ! ! ! / W ! ! W ! ! / ! Q Q ! Q E E Q Q E E E / ! c < O ",
"O = 7 p h z x l l l x k k k k k k k x l k k k k k k h x l l x l l x M Z Z Z M M A M A A M Z M M Z M Z J L Q Q / Q Q Q ! ! c < O ",
"O ; 7 u u p u u p d u d u d p u p u u u p d u d u d u u u u u u p d d i t e t r e e t e t e e e e e e g L ! ! ! ! Q Q / ! c 4 o ",
"O @ 7 7 9 9 9 9 7 7 7 7 7 7 9 7 9 8 9 9 7 7 7 7 7 9 7 7 9 8 9 9 7 9 7 7 < < > > > > > > > > < > < > > 8 g c c c c c b b c d : o ",
"O @ * ; = # ; ; ; ; # ; ; ; ; ; # ; ; ; ; ; # ; ; # : ; # ; ; = ; ; # = # # # # # # # # # # # # # # # = ; < < < < < < < 5 ; # o ",
"O O O O   O O O O o   O O O O o   O O O O o O O O O O O O O O O O O O O O O O O O O O O o o O O O O O O O O O O O o   O O O O @ "
};
