/* XPM */
static char * cursor_xpm[] = {
"17 16 69 1",
" 	c None",
".	c #010101",
"+	c #000000",
"@	c #212121",
"#	c #E0E0E0",
"$	c #ECECEC",
"%	c #797979",
"&	c #777777",
"*	c #CACACA",
"=	c #F0F0F0",
"-	c #FFFFFF",
";	c #7A7A7A",
">	c #8C8C8C",
",	c #D1D1D1",
"'	c #BFBFBF",
")	c #959595",
"!	c #E2E2E2",
"~	c #F7F7F7",
"{	c #D5D5D5",
"]	c #C0C0C0",
"^	c #F5F5F5",
"/	c #E7E7E7",
"(	c #A6A6A6",
"_	c #AAAAAA",
":	c #D7D7D7",
"<	c #F8F8F8",
"[	c #626262",
"}	c #C2C2C2",
"|	c #F6F6F6",
"1	c #E4E4E4",
"2	c #F4F4F4",
"3	c #DEDEDE",
"4	c #BEBEBE",
"5	c #C6C6C6",
"6	c #4D4D4D",
"7	c #767676",
"8	c #CBCBCB",
"9	c #E5E5E5",
"0	c #D6D6D6",
"a	c #EEEEEE",
"b	c #2B2B2B",
"c	c #6F6F6F",
"d	c #F1F1F1",
"e	c #F2F2F2",
"f	c #DBDBDB",
"g	c #2D2D2D",
"h	c #525252",
"i	c #909090",
"j	c #C5C5C5",
"k	c #191919",
"l	c #111111",
"m	c #6E6E6E",
"n	c #939393",
"o	c #AFAFAF",
"p	c #5A5A5A",
"q	c #AEAEAE",
"r	c #BCBCBC",
"s	c #DDDDDD",
"t	c #DADADA",
"u	c #FAFAFA",
"v	c #0D0D0D",
"w	c #9B9B9B",
"x	c #FDFDFD",
"y	c #9D9D9D",
"z	c #828282",
"A	c #CDCDCD",
"B	c #252525",
"C	c #4F4F4F",
"D	c #656565",
" .+      ++@     ",
".#$%  ..&*$*.    ",
"+=-$;+>,')!~{+   ",
"+]^-$/(_:$<-/+   ",
" [}|--/12-34~56  ",
"  78<---90a55/b  ",
"  +c8d--a50ef/g  ",
"  +hije--$!--/kl ",
"  +mno/-----|j__ ",
"   pqr/-----d'--+",
"    >q:///st-u!8+",
"    v>____iwx/y+ ",
"      +++@zA/yB  ",
"         Cnoy.   ",
"         C;D+    ",
"          +@     "};
