/* XPM */
static char *_623287173762[] = {
/* columns rows colors chars-per-pixel */
"20 20 114 2 ",
"   c black",
".  c #010101",
"X  c #020202",
"o  c gray1",
"O  c gray3",
"+  c gray4",
"@  c #0B0B0B",
"#  c #0E0E0E",
"$  c #101010",
"%  c #111111",
"&  c gray7",
"*  c gray8",
"=  c #161616",
"-  c #191919",
";  c #1B1B1B",
":  c #1E1E1E",
">  c #222222",
",  c #252525",
"<  c gray15",
"1  c #272727",
"2  c #2A2A2A",
"3  c gray17",
"4  c #2F2F2F",
"5  c gray20",
"6  c gray21",
"7  c #373737",
"8  c gray22",
"9  c gray24",
"0  c #3F3F3F",
"q  c gray25",
"w  c #414141",
"e  c gray26",
"r  c gray27",
"t  c #464646",
"y  c gray28",
"u  c #484848",
"i  c #494949",
"p  c #4B4B4B",
"a  c #515151",
"s  c gray32",
"d  c #535353",
"f  c #555555",
"g  c #565656",
"h  c gray34",
"j  c #585858",
"k  c gray35",
"l  c #5B5B5B",
"z  c gray39",
"x  c #656565",
"c  c DimGray",
"v  c gray42",
"b  c gray44",
"n  c #717171",
"m  c #727272",
"M  c gray45",
"N  c #747474",
"B  c gray46",
"V  c #797979",
"C  c #7B7B7B",
"Z  c #7C7C7C",
"A  c #7E7E7E",
"S  c gray50",
"D  c #838383",
"F  c gray52",
"G  c #868686",
"H  c gray53",
"J  c #8B8B8B",
"K  c #8D8D8D",
"L  c #8E8E8E",
"P  c gray56",
"I  c gray57",
"U  c #929292",
"Y  c #939393",
"T  c gray59",
"R  c #979797",
"E  c #9F9F9F",
"W  c gray63",
"Q  c #A4A4A4",
"!  c gray68",
"~  c #B6B6B6",
"^  c gray74",
"/  c gray77",
"(  c #C5C5C5",
")  c #C8C8C8",
"_  c gray79",
"`  c #CDCDCD",
"'  c #D0D0D0",
"]  c gray82",
"[  c #D2D2D2",
"{  c gray83",
"}  c #D5D5D5",
"|  c gray84",
" . c gray86",
".. c #DDDDDD",
"X. c gray87",
"o. c #E2E2E2",
"O. c gray89",
"+. c #E6E6E6",
"@. c #E7E7E7",
"#. c #F1F1F1",
"$. c gray95",
"%. c #F3F3F3",
"&. c #F4F4F4",
"*. c gray96",
"=. c #F6F6F6",
"-. c #F8F8F8",
";. c #F9F9F9",
":. c gray98",
">. c #FBFBFB",
",. c gray99",
"<. c #FDFDFD",
"1. c #FEFEFE",
"2. c white",
"3. c None",
/* pixels */
"3.3.3.3.3.3.3.    3.3.3.3.3.3.3.3.3.3.3.",
"3.3.3.3.3.3.5 Z Z q 3.3.3.3.3.3.3.3.3.3.",
"3.3.3.3.3.  q -.2.j   3.3.3.3.3.3.3.3.3.",
"3.3.3.3.3.  q *.2.h   3.3.3.3.3.3.3.3.3.",
"3.3.3.3.3.  q *.2.j   3.3.3.3.3.3.3.3.3.",
"3.3.3.3.3.  q *.2.j             3.3.3.3.",
"3.3.3.3.3.  q *.-.j 2 U U 2 6 Z %   3.3.",
"3.3.3.3.3.  q *.-.h y 2.2.u j ` % 0 y 3.",
"3.3 8 6 3.  q *.2.V b -.2.v Z | y ^ G   ",
"  b %.X.0 @ q *.2.*.%.2.2.%.*.2.%.-.D   ",
"  B -.-. .s q *.2.-.-.2.*.2.-.*.2.2.D   ",
"3.5 v *.2.) ^ -.-.Z V X.s ~ ! j @.2.D   ",
"3.3.< B X.2.2.2.-.s u [ = E U - X.2.G   ",
"3.3.3.@ ( 2.2.2.2.h p [ - W U :  .^ z   ",
"3.3.3.# W @.2.2.2.s u [ - W Y : | y   3.",
"3.3.3.3.% G %.2.2.j s | < Q Y < ) y   3.",
"3.3.3.3.3.< x *.2.[ ` %./ o.@.E 6 3.3.3.",
"3.3.3.3.3.3.< v o.2.2.2.2.L Y [ % 3.3.3.",
"3.3.3.3.3.3.3.@ b U L L J 6 0 b @ 3.3.3.",
"3.3.3.3.3.3.3.            3.3.    3.3.3."
};
