/* XPM */
static char *dfd3966d5d4d4d5bffe9e85b95d9f4b4B95T9PN1uFZux602[] = {
/* columns rows colors chars-per-pixel */
"64 64 121 2 ",
"   c None",
".  c black",
"X  c gray6",
"o  c #161616",
"O  c gray11",
"+  c gray32",
"@  c #646464",
"#  c #0277BD",
"$  c #0579BE",
"%  c #087BBF",
"&  c #077BC0",
"*  c #0B7DC1",
"=  c #0F80C3",
"-  c #1383C5",
";  c #1A87C6",
":  c #1F89C7",
">  c #1887C8",
",  c #1C8AC9",
"<  c #228ECC",
"1  c #2591CE",
"2  c #2A92CE",
"3  c #3295CE",
"4  c #2B95D1",
"5  c #2F98D3",
"6  c #349CD5",
"7  c #399ED6",
"8  c #399FD8",
"9  c #3CA2D9",
"0  c #419ED3",
"q  c #44A1D6",
"w  c #42A6DC",
"e  c #4CA6D9",
"r  c #46A9DE",
"t  c #49ABDF",
"y  c #53ABDC",
"u  c #58ADDD",
"i  c #4CADE1",
"p  c #4FB0E2",
"a  c #54B3E4",
"s  c #59B7E7",
"d  c #5AB8E7",
"f  c #5DBAE9",
"g  c #62B5E1",
"h  c #60B9E7",
"j  c #6EBBE5",
"k  c #62BEEB",
"l  c #76BFE6",
"z  c #66C0ED",
"x  c #69C3EE",
"c  c #77C0E7",
"v  c #73C3EB",
"b  c #7AC4EA",
"n  c #7DC9EF",
"m  c #6DC6F1",
"M  c #6FC8F2",
"N  c #71C7F2",
"B  c #73CAF4",
"V  c #74CAF4",
"C  c #74CBF4",
"Z  c #75CBF4",
"A  c #75CCF5",
"S  c #76CCF5",
"D  c #77CDF5",
"F  c #77CCF5",
"G  c #72C9F3",
"H  c #7ACBF3",
"J  c #78CDF6",
"K  c #78CEF6",
"L  c #79CEF6",
"P  c #7ACFF7",
"I  c #7BCFF7",
"U  c #7CCAF0",
"Y  c #7BD0F7",
"T  c #7CD0F7",
"R  c #7CD0F8",
"E  c #7CD1F8",
"W  c #7DD1F8",
"Q  c #959595",
"!  c gray62",
"~  c #A5A5A4",
"^  c #AEADAD",
"/  c #82C6EA",
"(  c #85CAEC",
")  c #89CBED",
"_  c #81CCF1",
"`  c #80CCF1",
"'  c #89D0F2",
"]  c #8ED1F2",
"[  c #8ED3F4",
"{  c #8ED3F4",
"}  c #95D3F2",
"|  c #9AD6F4",
" . c #9DD8F5",
".. c #A3DBF6",
"X. c #ABDEF7",
"o. c #A4DDF8",
"O. c #A8DFF8",
"+. c #B1DEF5",
"@. c #ACE1FA",
"#. c #B2E1F8",
"$. c #B3E5FC",
"%. c #BBE4F8",
"&. c #BCE4F8",
"*. c #B7E8FD",
"=. c #CBCAC9",
"-. c #CFCECD",
";. c #D7D5D4",
":. c #DAD8D8",
">. c #C6E9FA",
",. c #CEECFB",
"<. c #D9F2FE",
"1. c #DBF3FE",
"2. c #F1FBFF",
"3. c #F3FCFF",
"4. c #F6FCFF",
"5. c #F8F8F8",
"6. c #F9FAFA",
"7. c #FAFBFB",
"8. c #F9FBFC",
"9. c #F8FDFF",
"0. c #FBFDFF",
/* pixels */
"                                                                                                                                ",
"                                                                                                                                ",
"                                                                                      $ # # # $ # # # #                         ",
"                                                                                # $ $ = , 6 9 r r 9 4 > * $ #                   ",
"                                                                            # # = , 6 9 i a f f x m N N t * # #                 ",
"                                                                          # $ > 1 5 7 9 w i p s d x x w = $                     ",
"                                                      # # $ # # # # #   $ $ = , 1 1 5 7 9 w i p s s 2 $ #                       ",
"                                            # # # & - > , < < 1 < , > = $ # $ * = , 1 5 7 9 w i t 1 $                           ",
"                                      # # & > 6 i f m M G C G C N m m f s i 5 , - & & - < 6 9 w < #                             ",
"                                  $ # - 7 f C R J J S S S Z C C N C N N M M m x f i 5 - & = 1 < $                               ",
"                                # = 9 m J W R J J J Z Z C C C M M N M m m m x x x x x f i , & & #                               ",
"                            $ $ 5 m W W R J D D Z Z C C G G M M M m m m x x x x x z x k x f i 1 * #                             ",
"                          # * i J W J R J Z Z Z Z C G G M M M m m m m x x x x z k k z k k f k f r , $ #                         ",
"                        # = a P J J J J S Z Z V C C G M M m m m m x x x x z z z x k k z k f f f f s 7 * #                       ",
"                      $ * a Y P J S S S Z Z G G G G m m M m x x x x x x k z z z f k f f f f f f f f a w - #                     ",
"                      $ t P P D S S Z Z G C G M M m m m m x x x x x k k k k f k k f k f f f f f s a f a r > #                   ",
"                    $ 5 Z P Z Z Z Z C N m C m m m m m x x x z z x x k k k k k f f f f f f s s s a f a a a i = &                 ",
"                  # - k D Z C C C C C M N m m m m x x x x z z z k k k k k k f f f f f s s s s s a a a a p p 9 = $               ",
"                  # 9 D Z Z C C m C m m m m m m x x z x z x z z k k k f f f f s f s s s s a a a a a a i p p p 5 $               ",
"                # - x D C N C m m N m m m m x x x z z z z f f z k f k f f f f f s s s s a a a a p a p i i i i i 1 $             ",
"                # 6 N N N N V N m m m x x m x k x z k x z k k f f f f f f s s f s s a a a a p p p i i i i i i i 9 = #           ",
"                $ a C N H #.1.1.O.m x x x k z x z z k f f k f f f f f f s f s a a a a a a p p i i i i i i w r i r 4 $           ",
"              # > k N V >.5.=.-.5.%.m x x x k k z f k z f f f f f s s s f a a a a a p a i p i i i i r r w i w w r 9 - #         ",
"              # 4 m m [ 9.Q X o ~ 3.U z k z k k z f f f f f f s f f a s a a a a a p p p i i i i i i w i r w w w w w 1 #         ",
"              # 9 N m  .7.+ . . @ 9.] k k k k k f k f f f f s s a a a a a a a i p p i i i i i w i i 9 i 9 i 9 9 9 w 6 &         ",
"              $ i m x ' 9.! o O ^ 2.n k k k f f f f f f s s s s s a a a a a i a i i i i i i i i 9 9 i w 9 w 9 9 9 9 9 - $       ",
"              & a x x x &.7.;.:.9.+.k k k f f f f f f a s s a s a a a a p a i i i i i i w w i w i 9 i 9 i 9 9 9 9 9 8 , $       ",
"              = f x x z x ..,.,.| k k f h f f d s f a d a s a a a a i p i i i i i i w r i w w w i 9 9 9 9 9 9 9 9 8 7 < $       ",
"            $ - f x x k k k k k h h f f f d s s s a a a s a a p a i i i i i i r i w w i i w w 9 9 9 9 9 9 8 8 7 7 7 7 4 &       ",
"            # , k k k k k k k f f f f f f d s s s a a a a p p p i i i i i i i r i r w w 9 w 9 9 9 9 9 9 9 8 7 7 6 6 7 4 &       ",
"          # = t x x k k f f f f f f s a a s s a a a a p p p p i i i i r i r w r i 9 w w 9 w 9 9 9 9 9 9 8 8 7 6 6 6 6 4 * #     ",
"        # > a k f f f k x v H U _ U n x k s a a a a p p p i i i i i i r r r r w w w w 9 9 9 9 9 9 8 8 6 6 6 6 6 6 5 6 4 = #     ",
"      # - a k h x n ] ..@.#.$.$.$.$.$.#.O. .n h p i a i i r i r r r i w 8 5 9 9 w 9 9 9 9 9 8 8 7 9 6 6 6 6 6 5 5 5 5 4 = #     ",
"      $ w k x ] o.O.X.X.@.$.*.$.$.$.$.$.$.$.$.@.U i 5 9 i i i i i w r 9 = # & - < 6 9 9 9 9 8 8 6 6 6 6 6 5 5 5 5 5 4 4 * $     ",
"    # < k _ } b y 3 < < 2 0 g ) ..@.#.$.$.O.| c 0 - $ * 9 i i w w w w 1 #     # # * , 6 8 8 6 6 6 6 5 5 5 5 5 4 4 4 4 1 * #     ",
"    # 2 y 7 : * % ; : < : * % * : 3 0 0 7 2 - % & :   $ 1 w r r w w w > #         # # * < 7 6 6 6 6 5 5 5 5 4 4 4 1 1 1 &       ",
"    $ & * - <                     # # # # #           # - w w w w 9 9 = #             # $ 2 q 6 5 5 5 4 4 4 4 4 1 4 1 , $       ",
"                                                        & 7 w 9 w 9 8 * #               # & e g 5 5 4 4 4 4 1 1 1 1 1 , $       ",
"                                                        # , 9 9 9 9 7 * #                 # % c v 5 1 4 1 1 1 1 1 < 1 - #       ",
"                                                        # * 7 9 9 9 8 - #                   # 2 o.j 4 1 1 1 1 1 1 < < * #       ",
"                                                          $ , 9 8 8 7 - #                     $ c @.e 1 1 1 , 1 , , , & #       ",
"                                                          # $ 4 7 6 6 , #                     # 9 $.( 1 1 , 1 1 , < > $         ",
"                                                            # = 5 6 6 1 $                     # : ..@.6 , , , , , , = #         ",
"                                        # #                   # = 4 6 1 $                       - | *.e , , , , , , & #         ",
"                                        # # #                   $ = < 1 * $                     % } #.u , > , > , = $           ",
"                                        $ - $                     # $ * $ #                     - | $.u > > > > > * #           ",
"                                        # , , #                       # #                       > ..#.q > > > > * $             ",
"                                        # , 4 & #                                             # 2 #.o.4 - > - - & #             ",
"                                        # - 6 > #                                             # u *.( : - - - * $               ",
"                                        # = 6 1 $                                             * ) *.u - - - = & $               ",
"                                        # = 4 4 * #                                         # 3 @.| < - - = * #                 ",
"                                        # * 4 5 > #                                         % / $.e = = = * #                   ",
"                                        # = 4 4 , #                                       # e X.j > = = * $ $                   ",
"                                        # > 4 4 < $ #                                   # 2 | l > * = % $ #                     ",
"                                      # $ < 4 1 1 > # #                               # : j e > % = % $ #                       ",
"                                    # $ , 1 1 1 1 < > & #                           # % < : * * = % $ $                         ",
"                                  $ $ > 1 1 1 < , , , , * # #                   # $ $ = * * * * $ $ #                           ",
"                                # & > 1 1 < , - $ $ * - , > * $ # # # # # # # $ * * * = * * & $ # #                             ",
"                            # $ - , 1 < , = $ # $   # $ $ * - - - * * & $ % * * = * * * * $ # #                                 ",
"                          # # * - - * & $ # $           # $ $ $ * * - = - - = = * * % $ $ #                                     ",
"                            # # # # # $                       # # # $ $ $ $ & $ $ # # #                                         ",
"                                                                      # # # # # #                                               ",
"                                                                                                                                ",
"                                                                                                                                "
};
