/* XPM */
static char *_24165d269504ce0da038d7338d69c3aC25n2CrINeTAQhjh[] = {
/* columns rows colors chars-per-pixel */
"64 64 251 2 ",
"   c None",
".  c #148E27",
"X  c #158E28",
"o  c #1A9527",
"O  c #1E9A27",
"+  c #169128",
"@  c #1B9429",
"#  c #1D9B28",
"$  c #169B29",
"%  c #1D9D30",
"&  c #239C27",
"*  c #239D29",
"=  c #26992B",
"-  c #289C33",
";  c #2A8F24",
":  c #1CA328",
">  c #1CAB29",
",  c #18A628",
"<  c #15BC2B",
"1  c #1BB92A",
"2  c #1AB32A",
"3  c #25A227",
"4  c #2BA527",
"5  c #2DAB26",
"6  c #24A228",
"7  c #2BA529",
"8  c #24AC28",
"9  c #2DAA29",
"0  c #25A827",
"q  c #33AD26",
"w  c #33AC29",
"e  c #37AC29",
"r  c #2DB227",
"t  c #23BB29",
"y  c #29B82A",
"u  c #35B227",
"i  c #3BB426",
"p  c #3CBA26",
"a  c #35B12A",
"s  c #39B829",
"d  c #36A534",
"f  c #38AF35",
"g  c #42B525",
"h  c #43BB25",
"j  c #4ABE25",
"k  c #4BBD2C",
"l  c #43B82B",
"z  c #42AE35",
"x  c #40AA3A",
"c  c #4DBB34",
"v  c #48B638",
"b  c #56BA3A",
"n  c #52BF26",
"m  c #1CCD2A",
"M  c #16C52B",
"N  c #14CF2C",
"B  c #26C929",
"V  c #35C226",
"C  c #39C829",
"Z  c #29D229",
"A  c #3AD428",
"S  c #28C832",
"D  c #38C634",
"F  c #3ED339",
"G  c #74DB1E",
"H  c #7BDC1E",
"J  c #76D71C",
"K  c #6AD71F",
"L  c #7BE11E",
"P  c #43C225",
"I  c #4CC324",
"U  c #49C827",
"Y  c #53C524",
"T  c #54CB24",
"R  c #5CCC23",
"E  c #54C32C",
"W  c #5BC929",
"Q  c #4BD425",
"!  c #46D427",
"~  c #55D224",
"^  c #5BD223",
"/  c #5ADA24",
"(  c #55D62B",
")  c #49C638",
"_  c #57C536",
"`  c #53D232",
"'  c #62CE24",
"]  c #63CE2C",
"[  c #6ACD2B",
"{  c #63C827",
"}  c #64D322",
"|  c #6BD522",
" . c #65DA23",
".. c #6CDC22",
"X. c #6CD429",
"o. c #69D92B",
"O. c #71D621",
"+. c #74DC21",
"@. c #7ADC23",
"#. c #73D22B",
"$. c #74DC2B",
"%. c #7CDB2B",
"&. c #7AD62B",
"*. c #68CB38",
"=. c #6BD333",
"-. c #66D534",
";. c #72D532",
":. c #7CDB33",
">. c #77D839",
",. c #70C633",
"<. c #74E122",
"1. c #7BE221",
"2. c #7CE12A",
"3. c #74E12C",
"4. c #7BE132",
"5. c #6FE02B",
"6. c #3DA34A",
"7. c #44AC4A",
"8. c #4EB449",
"9. c #64BE56",
"0. c #64BA62",
"q. c #58CE4A",
"w. c #68C743",
"e. c #75CB46",
"r. c #76D348",
"t. c #70D250",
"y. c #72CD6C",
"u. c #77E246",
"i. c #84DE1D",
"p. c #89DF1C",
"a. c #83E21D",
"s. c #8BE31C",
"d. c #93E51B",
"f. c #9BE61C",
"g. c #9CE81B",
"h. c #A3E91C",
"j. c #AAEB1A",
"k. c #A8EA16",
"l. c #B4ED1C",
"z. c #B7ED15",
"x. c #85DD29",
"c. c #83DE32",
"v. c #86DC3A",
"b. c #92DF3B",
"n. c #84E223",
"m. c #8BE323",
"M. c #85E22B",
"N. c #8BE42C",
"B. c #94E624",
"V. c #9BE824",
"C. c #94E52B",
"Z. c #99E62B",
"A. c #9DE82B",
"S. c #9AE723",
"D. c #85E234",
"F. c #8BE234",
"G. c #8CE33D",
"H. c #85E13C",
"J. c #93E534",
"K. c #9AE633",
"L. c #93E53C",
"P. c #9BE63C",
"I. c #9FE83A",
"U. c #9CE833",
"Y. c #A3E924",
"T. c #A8EA28",
"R. c #B5ED27",
"E. c #AAEB34",
"W. c #ACEB3A",
"Q. c #A3E936",
"!. c #B3EC32",
"~. c #B2EC3B",
"^. c #BBEE3B",
"/. c #BBEE36",
"(. c #BEF03D",
"). c #C6F119",
"_. c #C1EF1A",
"`. c #C7F127",
"'. c #C3EF3A",
"]. c #C2EF35",
"[. c #C8F13D",
"{. c #CDF228",
"}. c #8BDD45",
"|. c #8ED952",
" X c #8DE443",
".X c #89E244",
"XX c #91E445",
"oX c #9AE543",
"OX c #92E54A",
"+X c #9BE849",
"@X c #95E453",
"#X c #9AE654",
"$X c #9EE854",
"%X c #8FE55B",
"&X c #ABEB42",
"*X c #ACEB4C",
"=X c #A2E848",
"-X c #B4EC43",
";X c #BAEE45",
":X c #B5ED4A",
">X c #BAEE4A",
",X c #A7E957",
"<X c #BDEE55",
"1X c #B5EC57",
"2X c #96DB65",
"3X c #83D472",
"4X c #9DE667",
"5X c #9FE876",
"6X c #A8E966",
"7X c #BDEE64",
"8X c #BCEE6B",
"9X c #B3EC67",
"0X c #A9E77A",
"qX c #B5EC78",
"wX c #BCF07B",
"eX c #CAF143",
"rX c #C9F14F",
"tX c #C7F158",
"yX c #CCF257",
"uX c #C7F167",
"iX c #D3F468",
"pX c #CCF276",
"aX c #D4F477",
"sX c #C4EF70",
"dX c #E2F879",
"fX c #88DC81",
"gX c #95D48D",
"hX c #B7ED83",
"jX c #B2E994",
"kX c #A9E597",
"lX c #C7F188",
"zX c #D3F486",
"xX c #C7F294",
"cX c #D7F59B",
"vX c #E2F797",
"bX c #E3F885",
"nX c #C8EEA7",
"mX c #D7F5A9",
"MX c #D9F6B8",
"NX c #CCF3A4",
"BX c #E1F8A7",
"VX c #E7F9B8",
"CX c #E7F9C4",
"ZX c #F0FBCC",
"AX c #F4FDD8",
"SX c #E9F9DB",
"DX c #F7FDE9",
"FX c #FFFFFD",
"GX c #FFFFF1",
"HX c #E9F8E5",
"JX c #DEF5CD",
/* pixels */
"                                                                                                                                ",
"                                                                                                                                ",
"                                                                                                                                ",
"                                                                     XOX@X                                                      ",
"                                                          XX X X XL.L.J.J.L..X X                                                ",
"                                                   XXXL.J.L.J.U.1X<Xz.z.j.j.V.J.G.                                              ",
"                                            .XG.K.Z.Y.f.f.B.K.x.P.(.z.{.).).z.E.qX X X                                          ",
"                                         X#X9X/.l.s.....} ;.jX*.$.T.aXiXaX[.z.l.tX*X#X X                                        ",
"                                     XI.8XSXFXaXuXL.......4.6X.XN.g.(./.mXaX!.Y.k.R.!.Z.}.}.                                    ",
"                                 XL.!.bXAXDXxX,XMX$XL n.m.m.2.n.L s.g.l.`.zXVX7X~.E.j.j.j.P.,X X X                              ",
"                             XOXwXvXdX^.~.F.G L N.U.=Xf.d.m.a.a.m.B.d.j.yX[.8XzXaXaXtX/.j.R.pXE.Q.OX X                          ",
"                          G.G.~.tXoXx.+.} ^ +.n.a.9XJXD.O.| X.+.G n.V.g.;XaXp.:.9XCXpXpXtXl.z.z.].>XU. X                        ",
"                         XL.m.XX2X_ ^ ^ | <.$.| K o.t.E I j h h I Y ' @.f.(.R.6X6X@XsX,X,X8Xb.h.j.j.z.T. X X                    ",
"                       XL.Y.h.Z.,X.X..| | W *.R R I i q a w a 5 a w u u Y @.g.BXVXx.M.1X9XCXqXc.d.d.!.pXT.G. X                  ",
"                     XL.~.mXmX9X1.| } W I h g T I u & 3 4 5 w 9 6 7 3 # 0 V T M.1XtX&XC.=XuX*X7XoXp.x.~.j.A. X                  ",
"                     X6Xc.MXhXX.} R W h 5 i j g 9 * 6 6 7 9 4 7 6 6 6 6 5 R } / 1.*X*X-X:X:X:X-X<XK.i.d.;Xj.J. X                ",
"                   XH.:...$.] R R Y R R R Y a 4 3 3 4 7 3 # # & # # & 5 R j R ^ R L $.#.1XtX>X-X;X>XS.f.j.j.j.G. X              ",
"                  D.n.H +.K ;.>.h w j Y p 7 6 9 I ^ ^  .} j 5 # 7 h e & 5 } Y 5 4 h } j 8.oX:X>XsX<XC.f.j.j.^.8XXX              ",
"                .XC.s.G +.i.=XkXl i a 9 & 0 y A ! ! U T +.m.m.} W ^ O.| g 5 R I 6 E n R e e }.>XE.^.oXx.j.z.yXBXI. X            ",
"               XoXcX+XJ f.k.X.k i 6 * : t C Z Z / 2.n.B.m.} I n W } @.m.m.H Y h 3 g x.| T 3 j +.b.!.rXc.Z.aX{.R.j.G. X          ",
"               XQ.9XJ.g.f.@.j a 3 # $ 2 B N < : +.B.M.X.j q e 3 o O i @.n.+.n.H ^ s i x.x.w u T { W.!.-Xx.!.`.).l.K. X          ",
"              +X;Xs.K ' R I i 7 # o $ < N 2 + q L 1... .} ^ j g 5 X X @ i 5 q H s.1.P i &.#.y ! p #.~.!.~.T.).{.`.T. X          ",
"             X9XpXp.| P n z e 7 w r M N M 3 4 3 I +..... .} ^ T h w o X . + + h :XzX-.V l C.Y u ! U L.~.R.R.l.).{.l. X          ",
"             XQ.T.i.E w.v 7 7 b q.S N < , & o 5 ......$.1.+...T g k ] l = + # I =XGX0XP P #.x.4 p ~ o.~.T.R.`.iX{.R. X          ",
"            XXQ.Y.v.y.! 2 - v f & > 2 $ @ & Y H F.+X=X=XN.n.L <.} =. X>.>.*.w.}.J.AXMXj T h C.k 4 ! ..L.].R.yXeX{.[.OX          ",
"            L.T.g.lXHXq.y w.k 3 @ o - v g H s.n.C.D.L L L 1.<.L 1.@.<.E d ] v.N.K.cXVX-.R P &.[ 5 u  .$.~.iXZXyXeXBX6X          ",
"            J.Q.&X2XHXfX*.4.I : O ; e.>.a.} T <.1.1.J.N.@.H +.G 1.1.1.<.h X z c.n.P.zX>.T T { #.u 4 ~ ..U.iXVXiXvXvX6X          ",
"           XN.Q.OX) fX5XN.T p 9 o 9.,X@.g : P 1.D.>._ i 5 4 3 q T  .G 1.G 4 . d G.2.~.:.P  .( x.p 3 i T oXBXvXiXvXbX1X          ",
"          OXxX8X] V D D.I 3 Y 5 f 8Xw.& e } 1.F.G.d . X + X X & u P / L L Y + + X.o.J.1.P Q  .Z.W 6 w h @XDXuXg.8XZX6X X        ",
"          $XMX6X#.< D v . h R & r.|.d i L L 2.$.b . X X O ; ; ; ; & A Q ..} # + ' / 5.M.T C <.B.X.g 5 h J.cXE.f.XXcX=X X        ",
"         XJ.m.6Xe.S f d $ ! 5 d w.) a +.L 1.( c X $ + & e 7 j W g & P Q ....: + W 3.4.n.L I L B.Z.[ 4 I K.7Xh.p.}.zXL. X        ",
"        XXZ.s.}.v D y % > t o w y v } 1.1.3.D & $ : X @ o @ b n & 4 !  .L R + X X.Q.A.1.| I m.Z.B.k 5 +.&XZ.d.c.hX7XJ.          ",
"         XY.S.J w D 9 @ > : # # 1 h L H 1.4.a @ 1 : @ X X 3 }.OXz , Q L 1.i $ o }.*XA.Z.Y ^ m.V.[ e Y 7X&XO.i.+XmX*XJ.          ",
"         XQ.zX}.y.s 8.@ # 6 6 6 B R  .1.N.:.= $ m o = X X : ~ c.r.A ..L ^ , $ q M.W.U.OXu ..B.@.5 i =XuX&.| d.h.v.Q.K.          ",
"          K.Q.G.jXq.v @ @ 6 0 # V ..P F.D.#.& , > + & X X $ A +X+X2.@.R 8 , o ^ n.A.U.k 5 ../ B 8 | !.Z.' @.g.d.x.C.F.          ",
"          J.g.L ..( P # # 6 8 $ D $.q G.G.=.i s 2 g o X X + = e.OX] q > 8 + 8 1.U.V.} 5 ~ A Z B j d.d.M.;.d.S.v.&.@.H.          ",
"          K.g.m.2.u.q.# @ 6 8 + y W 3 v.@X[ Y I 1 K h & 5 = X @ $ , u T 4 + T J.9X1XQ } A m B s H f.Z.G.0XP.,XNX$.L.oX          ",
"          J.T.cXxX6Xt.: # : y # r ( # *.6XX.#.} y ^ G g g ' n i P Q I & o Y L ,XmX X../ m m V J s.Z.C.J.lXH.:.:.+.hX@X          ",
"          J.zXDXMXHXt.1 - $ 8 : 9 -.* c 8X] x...^ T Y +.R } L 1.@.T 8 p  .<.+XcX$XN.3.Z m Z  ./ } K.C.n.5X0X$.G B.uXOX          ",
"          L.7XvXCXDXkXy.y.: > y y >.z 6 qX*.c.M.L G i e T ..<.L ..} ..<.<.m.8XXX,X6XA m N Z ! V &.T.a.~ / F.:XsXcX8X X          ",
"          L./.rXrX=X( F v f > 2 1 -.e.O 2X}.c Q.n.L ..3 + i ..1.L 1.T ~ <.1.a.*X4X! m m S Z V ] W.uXuXH.4XZXGXFXDX4X X          ",
"           X<XvXeXE.5.C : ) y 2 1 s t.z 8.qX4 ,.Q.@.L } # X & i j u : P ^ G | T B m Z D ! Q >.1XsXMXjX0XSXFXFXFXmX X            ",
"           XW.yX[.'.lXq.8 gXfX2 < y s w.4 0Xw.= v.=X} L Y # . . + + o o : 8 t M B S ) l $.,X9XlXNX%X@XmXVXvXdXiX+X X            ",
"           XI.'.[.eXpX}.V y.3Xy < 1 r b b 9.qX& = 8.7 R 1.T q u T } } } U B M m Z ) W n.7X*XtXVX#X4.qXQ.1X;Xz.T. X              ",
"           XL.T.T.[.'.U.Q V s V < < M 0 e.b 2X2X= . X y  .<.<.L 1.L 1.<.Q B B ` _ z W +.o.a.B.1.( ^ X.@.=X~.uX+X.X              ",
"            .XF.B.'.[.[.#.w.E ) S < M , z |.b 6Xe.= X + , r j i i j I P P ( -.c *.] $.o.P ~ ! r s ^ J s.k._.7XXX                ",
"             XXXwXaXiXeXE.r.E f ) ) M < @ 8.2X,.c.E = X . . . . . . # U 4.4.>.u.4.2.] I T V 6 7.*.J C.8Xl.).K. X                ",
"               X+XwXVXyX/.s.' P a r.) < y.6.x e.*.%.-.k z - - 7.0.& f e._ -.4.3.3.W i s r # 6 kX0Xs.h.zX].l. X                  ",
"                F.m.~.[.'.Y.L.&.-.l F S S % X X - b v.M.X.z 7 7.0.w.v 6 & P 5.$.E 5 a a * 6 E JX8Xd.g.l.`.*X X                  ",
"                 X2.n.rX[.!.cX9XNX:.E c ) % X X X X - { N.v.,._ v z 7 p o.5.] i 7.d 6 7 7 g X.qXlXT.j._.).+X X                  ",
"                  H.L.ZXaX/.E.B.I.K.}.*.2X8.- - - 7.X @ q ' a.@.} I W W k i 5 7 8.- # 6 j K L s.d.1XpXz.l.L.                    ",
"                   X XqXtX'.!.S.s.pXVX0X,.w.0.8.a 6 4 & # 6 g K M.3Xs i q 6 & & @ fX8.3 X.9XC.s.d.T.E.g.J. X                    ",
"                     XD.J.^.^.^./.tX<XL.p.{ d - w Y _ w.a 3 3 3 c 0X1.L H Q O + # 9.v Y x.qXC.oXB.d.s.F. X                      ",
"                        G.L.Q.~.aXtX/.Z.@.v.nX3X7 E hXlXn.Y d f 6 5 g I  .3.] R } @.g.j.g.i.N.mXoXa.M. X                        ",
"                             X XL.x.C.m.J P.>Xc.I h +.W.=X+XnXy.O O o o : gXhXG a.f./.uXs.@.@.U.j.Z.G.                          ",
"                                 Xc.$.O.O.@.k.f.R i Y *XuX=X,XF.Y u 4 o $ r. X.XN.C.1XzXf.d.a.g.A.L.                            ",
"                                    .X:.o.| +.N.2Xv h a.s.a.J.zX*XL .XE r 2.lXvXZXAXAXAXVXbXtXJ. X                              ",
"                                      XXG.:.X.W t.U h +.s.L ,XwXN.2.jXb g $.wX-XcXVXZXZXVXhX#X                                  ",
"                                          XXG.>.*.W *.W H } W ;.T P _ | J @.#X%.L x.J.I.OX                                      ",
"                                                 X X@X>.=.-.=.=.;.:.c.H.D.D.:.F.F.H..X                                          ",
"                                                    OXXXXXXX XXXXXOX XXX X XOX XXX                                              ",
"                                                                                                                                ",
"                                                                                                                                ",
"                                                                                                                                "
};
