/* XPM */
static char *dac9a31a2dd54be7a57df326e0947a7bZI2wErTBGuQ5EBpn[] = {
/* columns rows colors chars-per-pixel */
"64 64 173 2 ",
"   c None",
".  c #020101",
"X  c #0B0202",
"o  c #0C0C0C",
"O  c #130202",
"+  c #1B0202",
"@  c #1C0C0C",
"#  c gray8",
"$  c #1C1C1C",
"%  c #1C1212",
"&  c #240404",
"*  c #2B0505",
"=  c #250C0C",
"-  c #320505",
";  c #3C0707",
":  c #330C0C",
">  c #2F1010",
",  c #211A1A",
"<  c #371818",
"1  c #232323",
"2  c #2B2222",
"3  c #2B2B2B",
"4  c #302727",
"5  c #302B2B",
"6  c #3F2C2C",
"7  c #2C3131",
"8  c #333333",
"9  c #393232",
"0  c #363A3A",
"q  c #3B3B3B",
"w  c #430707",
"e  c #4E0707",
"r  c #430808",
"t  c #4D0A0A",
"y  c #510606",
"u  c #550B0B",
"i  c #5B0B0B",
"p  c #4B1111",
"a  c #551212",
"s  c #5C1010",
"d  c #561F1F",
"f  c #640C0C",
"g  c #6C0D0D",
"h  c #730E0E",
"j  c #7B0E0E",
"k  c #6B1212",
"l  c #601B1B",
"z  c #621414",
"x  c #751212",
"c  c #7B1616",
"v  c #7F1A1A",
"b  c #751B1B",
"n  c #4B2626",
"m  c #442A2A",
"M  c #483434",
"N  c #513838",
"B  c #553232",
"V  c #672323",
"C  c #6F2727",
"Z  c #6D2828",
"A  c #712222",
"S  c #7B2B2B",
"D  c #444444",
"F  c #4A4545",
"G  c #4C4C4C",
"H  c #5B4646",
"J  c #544A4A",
"K  c #5F4848",
"L  c #4D5050",
"P  c #535353",
"I  c #595757",
"U  c #5B5C5C",
"Y  c #6B4B4B",
"T  c #6F5151",
"R  c #715E5E",
"E  c #646464",
"W  c #6B6B6B",
"Q  c #726262",
"!  c #747474",
"~  c #7C7C7C",
"^  c #840F0F",
"/  c #8B0F0F",
"(  c #851212",
")  c #8C1111",
"_  c #811919",
"`  c #8F1818",
"'  c #951212",
"]  c #9B1212",
"[  c #931A1A",
"{  c #9E1A1A",
"}  c #A41414",
"|  c #AC1515",
" . c #A91818",
".. c #B41616",
"X. c #BB1616",
"o. c #B31A1A",
"O. c #BC1919",
"+. c #862525",
"@. c #832C2C",
"#. c #902828",
"$. c #8D3535",
"%. c #963737",
"&. c #9B3A3A",
"*. c #AC2323",
"=. c #C11717",
"-. c #CC1717",
";. c #C51919",
":. c #CC1A1A",
">. c #D11A1A",
",. c #CF2020",
"<. c #C32D2D",
"1. c #CD2C2C",
"2. c #D22323",
"3. c #D52B2B",
"4. c #D92C2E",
"5. c #D92A33",
"6. c #C53030",
"7. c #CA3333",
"8. c #D63131",
"9. c #DA3434",
"0. c #DC303B",
"q. c #DE3D3D",
"w. c #E23D3D",
"e. c #DF3341",
"r. c #B14141",
"t. c #BB4646",
"y. c #CE4B4B",
"u. c #DE4343",
"i. c #D54A4A",
"p. c #DE4E4E",
"a. c #DD5252",
"s. c #E24444",
"d. c #E64C4C",
"f. c #E84D4D",
"g. c #E65353",
"h. c #EA5454",
"j. c #EC5858",
"k. c #7E8080",
"l. c #838383",
"z. c #8C8C8C",
"x. c #908E8E",
"c. c #929292",
"v. c #9D9D9D",
"b. c #9B9B9B",
"n. c #A1A1A1",
"m. c #A2A2A2",
"M. c #A5A5A5",
"N. c #A6A6A6",
"B. c #ABABAB",
"V. c #A8A8A8",
"C. c #AEAEAE",
"Z. c #ACACAC",
"A. c #B1B1B1",
"S. c #B3B3B3",
"D. c #B5B5B5",
"F. c #B6B6B6",
"G. c #B5B5B5",
"H. c #B9B9B9",
"J. c #BDBDBD",
"K. c gray",
"L. c #BDBDBD",
"P. c #C1C1C1",
"I. c gray76",
"U. c #C6C6C6",
"Y. c #C4C4C4",
"T. c gray79",
"R. c #C8C8C8",
"E. c #CACACA",
"W. c #CBCBCB",
"Q. c #CDCDCD",
"!. c #CFCFCF",
"~. c #C9C9C9",
"^. c #D0D0D0",
/* pixels */
"                                                                                                                                ",
"                                                                                                                                ",
"                                                                                                                                ",
"                                                                                                                                ",
"                                                                                                                                ",
"                                                                                                                                ",
"                                                                                                                                ",
"                                                                                                                                ",
"                                                                                                                                ",
"                                                                                                                                ",
"                              . . . . . o o .                                                                                   ",
"                          . 0 z.c.c.c.c.x.x.x.D                                                                                 ",
"                        P E W ! ! ! ! ! ! ! ! W F                                                                               ",
"                      0 ~ n.~ 1 7 1 $ 1 $ $ o k.k..                                                                             ",
"                    1 v.P # q l.H.x.~ ~ ~ ! $ ~ ~ X O           # # # # # #                                                     ",
"                  8 v.q P l.A.K.T.P.L.K.A.~ $ ~ ~ * ] &       $ b.B.B.V.B.M.7 . . . .                                           ",
"                D ~ G L x.P.W.W.R.W.W.W.Y.B.3 ~ k.- ..&     8 ~ L F D D F F ~ z.l.z.k.1 .                       . .             ",
"              F W W M x.P.W.T.T.T.R.R.W.P.~ E W Y j X.& . . q A.$ 1 0 8 8 0 W ! ! ! ! E U F                   D U P             ",
"            8 ! W 0 x.P.R.T.T.T.T.T.T.W.B.1 M.L y >.X.& . O B x.D P ! ~ ~ ! 8 $ $ $ 3 z.M.! 7             8 8 x.^.n.o           ",
"          o v.I 7 z.Y.T.R.T.T.T.T.T.T.T.N.$ M.P y :.X.& X g ' 2 V.q D ~ l.l.~ ~ ~ l.! 3 # E x.$     # # 8 V.H.P.Q.n.o           ",
"          o n.P 3 z.Y.T.T.T.T.T.T.T.T.F.! $ n.L y -.=.* h ;.] , C.q D c.K.K.H.K.K.K.F.! E G L c.$ . W C.b.8 1 z.^.n.o           ",
"        1 ~ R L ! D.T.T.T.T.T.T.T.W.Q.b.D k.U Z *.w.=.* ) :.X.( J ~ I E Q.Q.W.T.T.A.L 8 3 U ~ I ~ l.W G I ~ 1 ! ^.n.o           ",
"        1 F.7 D v.T.T.T.T.T.T.T.T.A.B.! 1 v.3 j 4.i.( f } >.2.<.= U W W ! ~ H.W.T.A.U I I W W D H.c.I 8 D ! $ ~ ^.n.o           ",
"        1 D.7 D v.T.T.T.T.T.T.T.T.x.W G 1 I < ` w.t.@ ..:.-.3.y.@ + R ~ 3 8 z.L.T.T.T.T.Q.! 1 l.K.q 8 E I 8 3 z.K.l.o           ",
"        7 V.0 G n.T.T.T.T.T.T.T.P.x.0 3 E % ] q.g.r.: ..:.-.3.y.= ' g J S.F.D ~ Y.T.T.K.K.W $ ! C.D o o 0 C.H.K.! o             ",
"      D c.0 I b.P.T.T.T.T.T.T.P.x.k.q 3 W % } w.&.p } ;.-.-.3.y.= ' X._ F K.C.I E W.P.D 1 # o $ 3 z.l.~ n.z.z.G 1               ",
"    . G B.$ E B.W.T.T.T.T.Q.L.b.k.D D D 6 ( 7.h.$.- ;.:.9.4.3.p.[ i ' X.c J G ! W G P k.l.l.l.l.l.U W b.F.q 3 E U .             ",
"    . F V.$ E B.T.T.T.T.A.V.v.! L q D N g :.d.d.+.- ;.:.s.q.3.d.:.; h >.X.f y T ! I U ~ n.A.C.C.V.I q I ! q 8 E ! G             ",
"    . G B.$ U B.Q.T.T.H.b.z.l.I 1 I M f :.:.d.6.f - ;.:.s.q.3.f.3.l x O.2.2.>.g H V.v.F P E E E l.z.U 3 q l.l.q P z.1           ",
"    . D M.$ E B.T.Y.P.z.A.P.c.3 E 3 x -.:.,.s.V X ; X.-.u.q.3.h.g.g.S d a.h.3.-.( % 2 v.L o # 3 V.H.F.F.F.F.l.! G 0 W #         ",
"    . 8 ! # E B.A.z.z.A.R.l.G c.5 ( O.:.2.s.4.u ; ) r ..s.h.d.h.h.j.7.( d a.d.4.O.} ] m P E ! b.q 3 3 3 7 3 $ $ P B.C.1         ",
"    . 3 E # E x.z.~ ~ b.W E ! J c <.w.w.s.g.b g } } & | 3.s.j.h.9.9.2.) > a.j.8.-.>.-.) n 7 0 L G G F G F G G G G J L $         ",
"    . 0 l.# q F G F G G L W Q i 1.g.j.j.j.q.> j >.} + ..:.9.g.w.8.8.2./ @ $.a.s.2.:.-.:.c e e p F G G G G G G G L M o           ",
"      F c.q $ $ $ $ $ $ ~ Q i 3.g.h.g.f.u. .e ` 2.| r ' =.q.s.,.f.j.w.{ * X %.a.s.2.2.:.:.-.:.O.w * * * * * * * J z.o           ",
"        7 M.k.W W W W W 9 k 1.h.h.h.9.,.| * ] q.q.-.X.- / w.s.2.d.j.h.q.} + @ %.h.h.g.2.:.:.:.-.;.=.;.X.=.=.=.O.c o             ",
"        o 3 $ $ $ $ $ , c 6.d.h.h.h.9.-...@ } w.w.-.X.* / 9.h.f.h.j.q.2.| + &.C S j.h.d.d.9.:.:.-.:.:.:.:.:.:.g &               ",
"        . X f ^ j j j ^ <.d.j.h.w.9.2. .f j X.w.f.9.;.` f [ w.j.j.j.9.-.=.( A = a q.h.j.j.d.q.s.w.u.w.9.-.-.:.u .               ",
"          X } >.:.>.:.4.f.d.s.q.:.-.:.} f ;.:.w.j.f.:.:.j ( 2.s.h.j.s.8.4.;.- < #.q.h.h.j.j.j.j.j.s.g.u.:.:.] r                 ",
"          X ) X.:.:.>.f.h.9.:.-.:.-.-.:.:.:.:.w.h.s.:.:.-.>.:.,.s.h.j.h.s.;.t @.i.d.d.d.d.d.f.d.d.3.9.q.;.} -                   ",
"            O ( :.:.:.d.7.;.;.-.:.:.:.:.:.:.:.w.w.:.:.:.;.;.-.:.,.s.j.s.2.:.=.s s 2.:.,.,.:.:.;.;.;.;.;.} &                     ",
"            . j >.:.:.2.g & u -.:.-.:.-.,.s.f.g.w.:.:.-.f h >.:.:.2.w.h.d.s.2.e t :.-.:.:.:.} - * * * * & X                     ",
"              r i u i u h j ' -.:.-.3.q.u.j.w.s.f.e.q.,.' g j -.:.:.2.9.8.9.,.] ] -.:.-.-.-...j j j ; .                         ",
"                . . X r } >.>.:.:.3.s.g.u.w.,.9.s.s.w.,.>.' i ( ( X.:.-.:.8.8.8.8.9.8.8.8.8.9.9.>.>.f .                         ",
"                  . O ' | X.:.:.:.w.g.w.:.:.:.-.-.:.:.:.X.| ) * * ) ;.:.,.d.d.d.f.d.d.h.h.h.d.u.o.| i .                         ",
"                      + O g -.:.:.>.,.:.:.:.:.:.-.:.;.;.i + t X.X.t j :.:.,.:.,.:.2.2.f.h.q.:.o.* O O                           ",
"                          & i :.:.:.:.-.:.-.-.:.-...; - ( } } :.:.| f f :.-.i ) 3.d.d.h.9.` - -                                 ",
"                            * i i i ] >.>.>.:.:.>.X.j j ..3.0.O.g ..} h i i h | 2.9.9.@.z r                                     ",
"                              . . . i / ^ ( ( ( ( ( ( ) ..5.e.;.i h ) j r t ..} ( / c & .                                       ",
"                                      . . . . . . . . X j ..| | } * . ; | | | t . . X                                           ",
"                                                        O O O O + X . X O O O                                                   ",
"                                                                                                                                ",
"                                                                                                                                ",
"                                                                                                                                ",
"                                                                                                                                ",
"                                                                                                                                ",
"                                                                                                                                ",
"                                                                                                                                ",
"                                                                                                                                ",
"                                                                                                                                ",
"                                                                                                                                ",
"                                                                                                                                ",
"                                                                                                                                ",
"                                                                                                                                ",
"                                                                                                                                "
};
